<?xml version="1.0" encoding="UTF-8"?>
<svg width="416px" height="234px" viewBox="0 0 416 234" version="1.1" xmlns="http://www.w3.org/2000/svg" xmlns:xlink="http://www.w3.org/1999/xlink">
    <!-- Generator: Sketch 52 (66869) - http://www.bohemiancoding.com/sketch -->
    <title>logo-this-is-it</title>
    <desc>Created with Sketch.</desc>
    <g id="Page-1" stroke="none" stroke-width="1" fill="none" fill-rule="evenodd">
        <g id="samples" transform="translate(-3022.000000, -8626.000000)">
            <g id="logo-this-is-it" transform="translate(3022.000000, 8626.000000)">
                <path d="M60.5615444,69.4710907 C60.5615444,71.4607374 59.9659904,73.5868965 58.7748645,75.8496319 C57.5837386,78.1123673 55.7677871,80.2677855 53.3269553,82.3159511 C50.8861236,84.3641168 47.8107218,86.0123777 44.1006576,87.2607835 C40.3905934,88.5091892 36.2119521,89.1333827 31.5646086,89.1333827 C21.6841218,89.1333827 13.9712092,86.2562408 8.42563955,80.5018706 C2.88006989,74.7475004 0.107326648,67.0328589 0.107326648,57.3577145 C0.107326648,50.8035844 1.3765401,45.0102884 3.91500509,39.9776528 C6.45347008,34.9450173 10.1244259,31.0535609 14.9279827,28.303167 C19.7315396,25.5527731 25.4722897,24.1775968 32.1504052,24.1775968 C36.2900558,24.1775968 40.087933,24.7822843 43.5441507,25.9916773 C47.0003684,27.2010704 49.9293226,28.7615541 52.331101,30.6731754 C54.7328794,32.5847967 56.5683573,34.6231786 57.8375898,36.7883823 C59.1068223,38.953586 59.741429,40.9724618 59.741429,42.8450704 C59.741429,44.7566917 59.0287169,46.3756936 57.6032711,47.7021247 C56.1778254,49.0285558 54.4497425,49.6917614 52.4189705,49.6917614 C51.091158,49.6917614 49.9879186,49.3504055 49.1092192,48.6676837 C48.2305198,47.9849618 47.2444386,46.8828701 46.150946,45.3613756 C44.1982806,42.396412 42.1577759,40.1727227 40.0293706,38.6902409 C37.9009654,37.2077591 35.1965644,36.4665293 31.9160866,36.4665293 C27.1906364,36.4665293 23.382996,38.3098507 20.4930512,41.9965489 C17.6031065,45.6832471 16.1581558,50.7255602 16.1581558,57.1236396 C16.1581558,60.1276159 16.5291566,62.8877215 17.2711695,65.4040393 C18.0131823,67.9203571 19.0871322,70.0660223 20.4930512,71.8410992 C21.8989703,73.616176 23.5977637,74.9620933 25.5894824,75.8788912 C27.5812011,76.7956892 29.7681535,77.2540813 32.1504052,77.2540813 C35.3527764,77.2540813 38.0962301,76.5128515 40.3808486,75.0303697 C42.6654671,73.5478879 44.6864455,71.2851865 46.4438443,68.2421975 C47.420177,66.4476143 48.4746005,65.0431789 49.6071464,64.0288492 C50.7396923,63.0145196 52.1260639,62.5073624 53.7663029,62.5073624 C55.7189682,62.5073624 57.3396562,63.2485921 58.6284153,64.7310739 C59.9171745,66.2135557 60.5615444,67.7935455 60.5615444,69.4710907 Z M86.9424655,9.95052417 L86.9424655,33.6506082 C88.9732375,31.3098475 90.9551632,29.456773 92.8883019,28.0913292 C94.8214406,26.7258855 96.9595771,25.701818 99.3027756,25.0190961 C101.645974,24.3363742 104.164875,23.9950184 106.859553,23.9950184 C110.921097,23.9950184 114.52371,24.8532845 117.667502,26.5698423 C120.811293,28.2864002 123.281377,30.7831742 125.07783,34.0602393 C126.210376,35.9718606 126.971904,38.1077727 127.362437,40.4680398 C127.75297,42.8283069 127.948233,45.5494004 127.948233,48.631402 L127.948233,79.2366957 C127.948233,82.4357354 127.215995,84.8544852 125.751496,86.4930178 C124.286997,88.1315503 122.344124,88.9508043 119.922819,88.9508043 C114.650622,88.9508043 112.014564,85.7128005 112.014564,79.2366957 L112.014564,52.2595631 C112.014564,47.1489021 111.253036,43.2184336 109.729957,40.4680398 C108.206878,37.7176459 105.316976,36.3424696 101.060166,36.3424696 C98.2092742,36.3424696 95.6415577,37.1519705 93.3569392,38.7709967 C91.0723207,40.3900229 89.3637642,42.6039592 88.2312182,45.4128721 C87.3720455,47.7926455 86.9424655,52.0254577 86.9424655,58.1114357 L86.9424655,79.2366957 C86.9424655,82.3967227 86.2297534,84.8057195 84.8043076,86.4637584 C83.3788619,88.1217973 81.3969363,88.9508043 78.8584713,88.9508043 C73.5862748,88.9508043 70.9502161,85.7128005 70.9502161,79.2366957 L70.9502161,9.95052417 C70.9502161,6.71247181 71.6434019,4.28396896 73.0297943,2.66494278 C74.4161867,1.0459166 76.3590596,0.236415653 78.8584713,0.236415653 C81.3969363,0.236415653 83.3788619,1.05566962 84.8043076,2.69420214 C86.2297534,4.33273467 86.9424655,6.75148449 86.9424655,9.95052417 Z M186.688563,60.6932819 L155.40702,60.6932819 C155.446074,64.321461 156.178312,67.5204527 157.603758,70.2903529 C159.029204,73.0602531 160.923261,75.1474001 163.285986,76.5518566 C165.648711,77.956313 168.25548,78.6585307 171.106372,78.6585307 C173.019984,78.6585307 174.767593,78.4342112 176.349252,77.9855654 C177.930911,77.5369196 179.46373,76.8347019 180.947756,75.8788912 C182.431782,74.9230806 183.798627,73.8990131 185.048333,72.8066581 C186.298038,71.7143031 187.918726,70.2318435 189.910445,68.359235 C190.730565,67.6570067 191.902146,67.3058979 193.425225,67.3058979 C195.065464,67.3058979 196.393257,67.754537 197.408643,68.6518286 C198.424029,69.5491202 198.931714,70.8170133 198.931714,72.4555458 C198.931714,73.8990149 198.36545,75.586288 197.232904,77.5174156 C196.100358,79.4485432 194.391801,81.3016176 192.107183,83.0766945 C189.822564,84.8517714 186.952189,86.324478 183.495971,87.4948584 C180.039754,88.6652387 176.066139,89.2504201 171.575009,89.2504201 C161.303989,89.2504201 153.317707,86.3245131 147.615925,80.4726112 C141.914142,74.6207094 139.063293,66.6817483 139.063293,56.6554898 C139.063293,51.9349556 139.766242,47.5558481 141.172161,43.5180358 C142.57808,39.4802235 144.628348,36.0179002 147.323026,33.1309619 C150.017704,30.2440237 153.337186,28.0300873 157.28157,26.4890865 C161.225954,24.9480857 165.599859,24.1775968 170.403416,24.1775968 C176.651945,24.1775968 182.011931,25.494255 186.483535,28.1276108 C190.955138,30.7609667 194.303909,34.1647719 196.529948,38.3391285 C198.755986,42.5134852 199.868989,46.7658034 199.868989,51.0962108 C199.868989,55.1145167 198.716933,57.718574 196.412788,58.9084607 C194.108643,60.0983474 190.867267,60.6932819 186.688563,60.6932819 Z M155.706948,51.6228793 C156.253695,46.2391296 157.80604,42.1721188 160.364032,39.421725 C162.922024,36.6713311 166.192689,35.2961548 170.176126,35.2961548 C174.35483,35.2961548 177.723128,36.651825 180.281119,39.3632062 C182.839111,42.0745874 184.313351,46.1611043 184.703884,51.6228793 L155.706948,51.6228793 Z M283.362743,65.6158771 C283.362743,68.31242 283.431867,79.6978233 283.362743,80.5966709 C283.293619,81.4955186 283.362743,89.2855314 275.688807,89.2855314 C268.01487,89.2855314 267.897711,81.4955186 267.897711,80.5966709 C267.897711,79.6978233 267.897711,35.0363316 267.897711,35.0363316 C267.897711,27.8579987 270.494717,24.268886 275.688807,24.268886 C278.344432,24.268886 280.258015,25.1076461 281.429614,26.7851913 C282.601214,28.4627365 283.245583,30.9400044 283.362743,34.2170695 C285.276355,30.9400044 287.238755,28.4627365 289.25,26.7851913 C291.261245,25.1076461 293.94612,24.268886 297.304704,24.268886 C300.663289,24.268886 303.924191,25.1076461 307.087509,26.7851913 C310.250827,28.4627365 312.533314,30.8543608 313.424658,32.9319982 C314.324441,35.0293094 315.224225,37.159391 314.324441,39.1033831 C313.424658,41.0473752 308.625811,41.0473752 307.426099,41.0473752 C306.226388,41.0473752 304.726748,41.0473752 301.200252,39.402999 C297.673756,37.7586228 299.028118,37.7516005 295.129056,36.8270046 C292.800848,36.2749101 290.376487,35.984335 287.930786,37.7516005 C285.485085,39.518866 284.182863,41.5989996 283.362743,44.0177857 C282.542624,46.4365718 283.362743,62.9193342 283.362743,65.6158771 Z M318.294438,124.663131 L298.43527,124.663131 C295.951539,124.663131 293.938077,126.68007 293.938077,129.170614 L293.938077,218.117196 C293.938077,223.499241 292.736727,227.49184 290.333992,230.095112 C287.931256,232.698384 284.825328,234 281.016113,234 C277.148295,234 273.998415,232.683759 271.566378,230.051237 C269.134341,227.418715 267.91834,223.440741 267.91834,218.117196 C267.91834,218.117196 268.291642,211.403078 268.68,201.936936 C273.234319,195.948784 279.500143,180.368758 280.416257,172.578745 C281.332372,164.788732 281.332372,151.306018 276.533526,139.920615 C271.734679,128.535211 271.987809,130.238913 267.91834,124.663131 C264.836337,120.145967 253.439077,107.861716 239.042538,103.164308 L322.41914,103.164308 C326.931594,103.164308 330.286583,104.158801 332.484207,106.147818 C333.000002,106.614652 333.455266,107.115321 333.85,107.649827 C335.355989,106.83281 336.953997,106.083515 338.644027,105.401941 C345.96944,102.447666 354.583996,100.970551 364.487954,100.970551 C372.3994,100.970551 379.241233,101.950419 385.013659,103.910186 C390.786084,105.869952 395.576832,108.473185 399.386047,111.719962 C403.195261,114.966739 405.978877,118.374342 407.736976,121.942871 C409.495075,125.511401 410.374111,128.992128 410.374111,132.385157 C410.374111,135.485683 409.275316,138.279039 407.077692,140.76531 C404.880068,143.251581 402.140405,144.494698 398.85862,144.494698 C395.869851,144.494698 393.599007,143.748828 392.04602,142.257065 C390.493032,140.765303 388.808212,138.322944 386.99151,134.929915 C384.647378,130.074375 381.834462,126.286525 378.552677,123.566252 C375.270892,120.845979 369.996674,119.485863 362.729864,119.485863 C355.990484,119.485863 350.555109,120.962978 346.423576,123.917253 C342.292044,126.871528 340.226308,130.425379 340.226308,134.578914 C340.226308,137.152936 340.929537,139.375921 342.336017,141.247937 C343.742496,143.119952 345.676376,144.728692 348.137715,146.074203 C350.599053,147.419714 353.089656,148.472707 355.609598,149.233214 C358.12954,149.99372 362.290312,151.105213 368.092039,152.567725 C375.358849,154.264239 381.936971,156.136227 387.826603,158.183744 C393.716235,160.231261 398.726742,162.717495 402.858275,165.642519 C406.989808,168.567544 410.212941,172.267644 412.527772,176.742932 C414.842602,181.218219 416,186.702558 416,193.196112 C416,200.976677 413.992867,207.967381 409.978541,214.168433 C405.964214,220.369485 400.089321,225.224953 392.353685,228.734982 C384.61805,232.245012 375.44677,234 364.839572,234 C352.122656,234 341.632822,231.601516 333.369756,226.804476 C327.509426,223.352947 322.747979,218.746102 319.085272,212.983804 C315.422566,207.221506 313.59124,201.620168 313.59124,196.179622 C313.59124,193.020596 314.690036,190.314989 316.887659,188.06272 C319.085283,185.810451 321.883549,184.684333 325.282541,184.684333 C328.036896,184.684333 330.366342,185.561828 332.27095,187.316842 C334.175557,189.071857 335.801774,191.67509 337.14965,195.126619 C338.790543,199.221653 340.563266,202.64388 342.467873,205.393403 C344.372481,208.142926 347.053542,210.409786 350.511136,212.194051 C353.968731,213.978316 358.510419,214.870435 364.136336,214.870435 C371.871972,214.870435 378.157082,213.071572 382.991855,209.473792 C387.826627,205.876012 390.243977,201.386167 390.243977,196.004122 C390.243977,191.733586 388.940073,188.267484 386.332226,185.605712 C383.724379,182.943939 380.35474,180.911078 376.223207,179.507066 C372.091674,178.103054 366.568396,176.611314 359.653206,175.031801 C350.393884,172.867283 342.643714,170.337174 336.402462,167.4414 C330.16121,164.545626 325.209305,160.596902 321.546599,155.59511 C317.883892,150.593318 316.052567,144.377734 316.052567,136.948172 C316.052567,132.547961 316.799853,128.452962 318.294438,124.663131 Z M342.817592,62.3201024 C342.817592,62.3201024 326.021629,39.2496799 325.350613,38.1635723 C324.679597,37.0774648 322.63486,33.2480058 322.63486,31.9605874 C322.63486,30.5951436 322.986334,29.3272506 323.689294,28.1568702 C324.392253,26.9864898 325.358808,26.0501996 326.588987,25.3479714 C327.819166,24.6457431 329.098143,24.2946343 330.425956,24.2946343 C332.730101,24.2946343 334.467947,25.026111 335.639546,26.4890865 C336.811145,27.952062 338.27008,30.0294694 339.94398,32.7798496 C341.61788,35.5302297 351.983273,52.1331626 351.983273,52.1331626 C351.983273,52.1331626 363.419755,35.890705 365.012257,33.2573624 C366.604759,30.6240197 367.038244,30.2440465 367.858364,28.5665013 C368.678483,26.8889561 369.547406,25.7576054 370.465159,25.1724152 C371.382912,24.587225 372.681415,24.2946343 374.360707,24.2946343 C375.571359,24.2946343 376.733178,24.6164841 377.846197,25.2601933 C378.959216,25.9039025 379.818376,26.7719216 380.423702,27.8642766 C381.029029,28.9566316 381.331687,30.1074884 381.331687,31.3168814 C381.175474,32.0581223 380.921631,33.1114488 380.570152,34.4768926 C380.218672,35.8423364 378.554146,37.7141485 378.081687,38.6317222 C377.609229,39.5492958 359.013699,62.3201024 359.013699,62.3201024 C359.013699,64.5426787 359.046284,68.8328723 359.277941,73.3359952 C359.913482,85.6901408 357.915551,89.2855314 351.983273,89.2855314 C342.553425,89.2855314 342.817592,82.3943662 342.817592,73.7055058 L342.817592,62.3201024 Z M86.7816066,100.168149 L120.800654,99.5689175 C129.649753,99.5689175 154.46287,96.4763124 167.659697,120.381944 C167.659697,120.381944 166.556873,121.189285 162.459403,126.210519 C158.361932,131.231754 155.962509,139.021767 155.962509,139.021767 C155.962509,139.021767 154.762797,133.628681 148.164384,127.93598 C141.56597,122.243278 135.567412,121.987932 125.669791,121.987932 C120.392553,121.987932 98.0803609,122.488549 98.0803609,122.488549 C95.5935025,122.543013 93.5775054,124.604812 93.5775054,127.078194 L93.5775054,162.391805 L93.5775054,199.537327 C93.5775054,202.023208 95.5820326,204.151531 98.0728013,204.282407 C98.0728013,204.282407 111.361192,205.104855 125.669791,205.104855 C139.466474,205.104855 144.762323,200.443022 149.01274,198.046095 C153.263158,195.649168 157.162221,190.256082 157.162221,190.256082 C157.162221,190.256082 160.243418,198.345711 163.65163,203.139565 C167.059841,207.933419 167.659697,208.233035 169.759193,210.470272 C169.759193,212.128041 163.160779,216.921895 162.459403,217.521127 C161.758027,218.120359 154.614611,221.848551 150.51238,223.720567 C146.410149,225.592582 142.000316,226.908824 137.28275,227.66933 C132.565184,228.429836 127.247015,228.810084 121.328081,228.810084 L87.3090337,228.810084 C82.5621661,228.810084 78.9874183,228.093464 76.5846828,226.660202 C74.1819474,225.22694 72.6143326,223.208703 71.8817913,220.605431 C71.14925,218.002159 70.7829849,214.623807 70.7829849,210.470272 L70.7829849,116.138703 C70.7829849,110.522656 72.042937,106.456933 74.562879,103.941412 C77.082821,101.425891 81.1556895,100.168149 86.7816066,100.168149 Z" id="DOTS" fill="#FFFFFF" opacity="0.462611607"></path>
                <path d="M210.934522,116.996031 C210.345842,112.232863 208.74982,97.646686 208.74982,79.5105634 C208.74982,57.2734475 212.111121,35.0363316 212.111121,35.0363316 C212.111121,27.8579987 214.708127,24.268886 219.902217,24.268886 C222.557842,24.268886 224.471425,25.1076461 225.643025,26.7851913 C226.814624,28.4627365 227.458994,30.9400044 227.576154,34.2170695 C229.489766,30.9400044 231.452165,28.4627365 233.46341,26.7851913 C235.474656,25.1076461 238.15953,24.268886 241.518115,24.268886 C244.876699,24.268886 248.137601,25.1076461 251.300919,26.7851913 C254.464237,28.4627365 256.746724,30.8543608 257.638068,32.9319982 C258.537851,35.0293094 259.437635,37.159391 258.537851,39.1033831 C257.638068,41.0473752 252.839221,41.0473752 251.63951,41.0473752 C250.439798,41.0473752 248.940159,41.0473752 245.413663,39.402999 C241.887167,37.7586228 235.143475,35.6542894 231.844268,36.8270046 C228.545061,37.9997199 227.178983,38.950064 224.645999,42.2458387 C222.113014,45.5416133 219.902217,48.837388 216.847873,71.4583867 C214.140787,91.5075372 217.174741,112.380449 217.899612,116.867498 C219.860638,116.905181 221.639817,117.004675 222.712209,117.168642 C242.822458,120.233404 258.405949,135.11568 262.438406,155.036632 C262.958722,157.55597 263.03677,158.776681 263.03677,163.815357 C263.03677,169.763073 262.906691,170.983783 261.814025,175.373145 C257.443363,192.98254 243.394807,206.358407 225.20973,210.228318 C222.191892,210.877632 221.437433,210.929577 215.948089,210.929577 C210.458746,210.929577 209.704286,210.877632 206.686448,210.228318 C202.315786,209.319279 198.699584,208.046623 194.615096,206.020764 C182.933981,200.176938 173.880467,189.216519 170.42036,176.697746 C169.04152,171.736987 168.885425,170.282524 168.859409,163.94522 C168.859409,158.724735 168.937456,157.581943 169.457773,155.036632 C173.464213,135.21957 189.021689,120.311322 208.923811,117.194615 C209.446436,117.114706 210.136926,117.048409 210.934522,116.996031 Z" id="Combined-Shape" fill="#FF6E7F"></path>
            </g>
        </g>
    </g>
</svg>