<?xml version="1.0" encoding="UTF-8"?>
<svg width="841px" height="274px" viewBox="0 0 841 274" version="1.1" xmlns="http://www.w3.org/2000/svg" xmlns:xlink="http://www.w3.org/1999/xlink">
    <!-- Generator: Sketch 51.3 (57544) - http://www.bohemiancoding.com/sketch -->
    <title>logo-doggy</title>
    <desc>Created with Sketch.</desc>
    <defs></defs>
    <g id="Page-1" stroke="none" stroke-width="1" fill="none" fill-rule="evenodd">
        <g id="logo-doggy" transform="translate(15.000000, 0.000000)">
            <g id="pow" transform="translate(126.500000, 47.500000) rotate(20.000000) translate(-126.500000, -47.500000) translate(100.000000, 27.000000)" fill="#FF7A8A" fill-rule="nonzero">
                <path d="M27.0326319,19.5904437 C33.5711628,19.5904437 43.1967693,35.3007238 40.1096937,40.1554673 C38.5592891,42.593638 32.7558685,38.4130732 26.9946667,38.4511836 C21.2844987,38.4889564 15.616779,42.7678891 13.95557,40.1554673 C10.6183053,34.9072756 20.4941009,19.5904437 27.0326319,19.5904437 Z" id="Triangle"></path>
                <ellipse id="Oval" transform="translate(19.574667, 9.305461) rotate(-14.000000) translate(-19.574667, -9.305461) " cx="19.5746667" cy="9.30546075" rx="5.44133333" ry="7.90614334"></ellipse>
                <ellipse id="Oval" transform="translate(8.409333, 17.771331) rotate(-40.000000) translate(-8.409333, -17.771331) " cx="8.40933333" cy="17.7713311" rx="4.876" ry="7.13651877"></ellipse>
                <ellipse id="Oval" transform="translate(44.590667, 17.771331) scale(-1, 1) rotate(-40.000000) translate(-44.590667, -17.771331) " cx="44.5906667" cy="17.7713311" rx="4.876" ry="7.13651877"></ellipse>
                <ellipse id="Oval" transform="translate(34.273333, 9.025597) scale(-1, 1) rotate(-14.000000) translate(-34.273333, -9.025597) " cx="34.2733333" cy="9.02559727" rx="5.44133333" ry="7.90614334"></ellipse>
            </g>
            <g id="pow" transform="translate(169.500000, 93.500000) rotate(20.000000) translate(-169.500000, -93.500000) translate(143.000000, 73.000000)" fill="#FF7A8A" fill-rule="nonzero">
                <path d="M27.0326319,19.5904437 C33.5711628,19.5904437 43.1967693,35.3007238 40.1096937,40.1554673 C38.5592891,42.593638 32.7558685,38.4130732 26.9946667,38.4511836 C21.2844987,38.4889564 15.616779,42.7678891 13.95557,40.1554673 C10.6183053,34.9072756 20.4941009,19.5904437 27.0326319,19.5904437 Z" id="Triangle"></path>
                <ellipse id="Oval" transform="translate(19.574667, 9.305461) rotate(-14.000000) translate(-19.574667, -9.305461) " cx="19.5746667" cy="9.30546075" rx="5.44133333" ry="7.90614334"></ellipse>
                <ellipse id="Oval" transform="translate(8.409333, 17.771331) rotate(-40.000000) translate(-8.409333, -17.771331) " cx="8.40933333" cy="17.7713311" rx="4.876" ry="7.13651877"></ellipse>
                <ellipse id="Oval" transform="translate(44.590667, 17.771331) scale(-1, 1) rotate(-40.000000) translate(-44.590667, -17.771331) " cx="44.5906667" cy="17.7713311" rx="4.876" ry="7.13651877"></ellipse>
                <ellipse id="Oval" transform="translate(34.273333, 9.025597) scale(-1, 1) rotate(-14.000000) translate(-34.273333, -9.025597) " cx="34.2733333" cy="9.02559727" rx="5.44133333" ry="7.90614334"></ellipse>
            </g>
            <g id="pow" transform="translate(192.500000, 28.500000) rotate(20.000000) translate(-192.500000, -28.500000) translate(166.000000, 8.000000)" fill="#FF7A8A" fill-rule="nonzero">
                <path d="M27.0326319,19.5904437 C33.5711628,19.5904437 43.1967693,35.3007238 40.1096937,40.1554673 C38.5592891,42.593638 32.7558685,38.4130732 26.9946667,38.4511836 C21.2844987,38.4889564 15.616779,42.7678891 13.95557,40.1554673 C10.6183053,34.9072756 20.4941009,19.5904437 27.0326319,19.5904437 Z" id="Triangle"></path>
                <ellipse id="Oval" transform="translate(19.574667, 9.305461) rotate(-14.000000) translate(-19.574667, -9.305461) " cx="19.5746667" cy="9.30546075" rx="5.44133333" ry="7.90614334"></ellipse>
                <ellipse id="Oval" transform="translate(8.409333, 17.771331) rotate(-40.000000) translate(-8.409333, -17.771331) " cx="8.40933333" cy="17.7713311" rx="4.876" ry="7.13651877"></ellipse>
                <ellipse id="Oval" transform="translate(44.590667, 17.771331) scale(-1, 1) rotate(-40.000000) translate(-44.590667, -17.771331) " cx="44.5906667" cy="17.7713311" rx="4.876" ry="7.13651877"></ellipse>
                <ellipse id="Oval" transform="translate(34.273333, 9.025597) scale(-1, 1) rotate(-14.000000) translate(-34.273333, -9.025597) " cx="34.2733333" cy="9.02559727" rx="5.44133333" ry="7.90614334"></ellipse>
            </g>
            <g id="pow" transform="translate(116.288691, 158.953154) rotate(25.000000) translate(-116.288691, -158.953154) translate(75.788691, 126.953154)" fill="#FF7A8A" fill-rule="nonzero">
                <path d="M41.3140223,30.1023891 C51.3068714,30.1023891 66.017704,54.2425756 61.2997206,61.7023035 C58.9302342,65.4487608 50.0608557,59.0249661 41.256,59.083526 C32.5291395,59.1415672 23.8671527,65.7165126 21.328324,61.7023035 C16.227976,53.6380088 31.3211731,30.1023891 41.3140223,30.1023891 Z" id="Triangle"></path>
                <ellipse id="Oval" transform="translate(29.916000, 14.298635) rotate(-14.000000) translate(-29.916000, -14.298635) " cx="29.916" cy="14.2986348" rx="8.316" ry="12.1484642"></ellipse>
                <ellipse id="Oval" transform="translate(12.852000, 27.307167) rotate(-40.000000) translate(-12.852000, -27.307167) " cx="12.852" cy="27.3071672" rx="7.452" ry="10.9658703"></ellipse>
                <ellipse id="Oval" transform="translate(68.148000, 27.307167) scale(-1, 1) rotate(-40.000000) translate(-68.148000, -27.307167) " cx="68.148" cy="27.3071672" rx="7.452" ry="10.9658703"></ellipse>
                <ellipse id="Oval" transform="translate(52.380000, 13.868601) scale(-1, 1) rotate(-14.000000) translate(-52.380000, -13.868601) " cx="52.38" cy="13.8686007" rx="8.316" ry="12.1484642"></ellipse>
            </g>
            <path d="M84.4318987,208.27498 C86.6844403,210.036509 89.8583414,211.755882 93.9536019,213.433098 C98.0488624,215.110314 101.983371,216.262925 105.757127,216.890931 L87.8227956,261.27996 C86.1676796,265.376516 81.5050281,267.355694 77.4084721,265.700578 L70.9181851,263.078332 C66.821629,261.423216 64.8424509,256.760565 66.497567,252.664009 L84.4318987,208.27498 Z M0.712890625,183.892995 L0.712890625,140.840973 L28.4863281,140.840973 C37.0703554,140.840973 42.885727,142.197177 45.9326172,144.909626 C48.9795074,147.622074 50.5029297,152.8156 50.5029297,160.490358 C50.5029297,169.826227 49.1479628,176.06056 46.4379883,179.193544 C43.7280138,182.326527 38.3154703,183.892995 30.2001953,183.892995 L0.712890625,183.892995 Z M7.48046875,179.792802 L7.48046875,144.941166 L28.3984375,144.941166 C35.2246435,144.941166 39.5385652,145.981974 41.340332,148.06362 C43.1420989,150.145267 44.0429688,155.096988 44.0429688,162.918933 C44.0429688,170.046996 43.0029401,174.641268 40.9228516,176.701888 C38.842763,178.762508 34.2139031,179.792802 27.0361328,179.792802 L7.48046875,179.792802 Z M115.712891,212.399414 C86.4417989,212.399414 62.7128906,188.670506 62.7128906,159.399414 C62.7128906,130.128322 86.4417989,106.399414 115.712891,106.399414 C144.983982,106.399414 168.712891,130.128322 168.712891,159.399414 C168.712891,188.670506 144.983982,212.399414 115.712891,212.399414 Z M115.712891,206.399414 C141.670274,206.399414 162.712891,185.356797 162.712891,159.399414 C162.712891,133.442031 141.670274,112.399414 115.712891,112.399414 C89.7555074,112.399414 68.7128906,133.442031 68.7128906,159.399414 C68.7128906,185.356797 89.7555074,206.399414 115.712891,206.399414 Z M206.508398,162.477374 L232.216406,162.477374 C232.333594,163.591791 232.392187,165.158259 232.392187,167.176825 C232.392187,174.93569 231.066517,179.73497 228.415136,181.574809 C225.763756,183.414648 218.842438,184.334554 207.650976,184.334554 C197.074751,184.334554 190.277944,183.246437 187.260351,181.07017 C184.242758,178.893903 182.733984,174.010518 182.733984,166.419867 L182.690039,160.080338 L182.733984,156.264005 C182.733984,149.892905 184.411213,145.656082 187.765722,143.553408 C191.120231,141.450735 197.880418,140.399414 208.046484,140.399414 C218.241847,140.399414 224.81893,141.088029 227.777929,142.46528 C230.736928,143.842531 232.216406,146.917645 232.216406,151.690714 L232.216406,153.330791 L225.580664,153.330791 L225.580664,152.258433 C225.580664,148.746968 224.577256,146.57599 222.57041,145.745434 C220.563564,144.914878 215.3268,144.499607 206.859961,144.499607 C199.037656,144.499607 194.145127,145.167195 192.182226,146.502393 C190.219326,147.837591 189.23789,151.175534 189.23789,156.516325 L189.15,162.225054 L189.193945,168.375343 C189.193945,173.80024 190.285243,177.132928 192.467871,178.373505 C194.650499,179.614082 200.473194,180.234362 209.936132,180.234362 C217.172497,180.234362 221.64755,179.645622 223.361425,178.468125 C225.075301,177.290628 225.932226,174.210258 225.932226,169.226922 C225.932226,168.827414 225.81504,167.944304 225.580664,166.577566 L206.508398,166.577566 L206.508398,162.477374 Z M277.431054,162.477374 L303.139062,162.477374 C303.25625,163.591791 303.314843,165.158259 303.314843,167.176825 C303.314843,174.93569 301.989173,179.73497 299.337792,181.574809 C296.686412,183.414648 289.765094,184.334554 278.573632,184.334554 C267.997407,184.334554 261.2006,183.246437 258.183007,181.07017 C255.165414,178.893903 253.65664,174.010518 253.65664,166.419867 L253.612695,160.080338 L253.65664,156.264005 C253.65664,149.892905 255.333869,145.656082 258.688378,143.553408 C262.042887,141.450735 268.803074,140.399414 278.96914,140.399414 C289.164504,140.399414 295.741586,141.088029 298.700585,142.46528 C301.659585,143.842531 303.139062,146.917645 303.139062,151.690714 L303.139062,153.330791 L296.50332,153.330791 L296.50332,152.258433 C296.50332,148.746968 295.499912,146.57599 293.493066,145.745434 C291.48622,144.914878 286.249456,144.499607 277.782617,144.499607 C269.960312,144.499607 265.067783,145.167195 263.104882,146.502393 C261.141982,147.837591 260.160546,151.175534 260.160546,156.516325 L260.072656,162.225054 L260.116601,168.375343 C260.116601,173.80024 261.207899,177.132928 263.390527,178.373505 C265.573155,179.614082 271.395851,180.234362 280.858788,180.234362 C288.095153,180.234362 292.570206,179.645622 294.284081,178.468125 C295.997957,177.290628 296.854882,174.210258 296.854882,169.226922 C296.854882,168.827414 296.737696,167.944304 296.50332,166.577566 L277.431054,166.577566 L277.431054,162.477374 Z M372.347851,140.840973 L349.67207,165.915228 L349.67207,183.892995 L342.904491,183.892995 L342.904491,165.915228 L320.799999,140.840973 L328.66621,140.840973 L341.542187,155.380887 L344.003124,158.187942 C344.325391,158.524369 344.735544,158.986951 345.233593,159.575699 L346.420116,160.994997 L346.595898,160.994997 L347.782421,159.575699 L348.968945,158.187942 L351.473827,155.380887 L364.305859,140.840973 L372.347851,140.840973 Z M471.610155,152.510752 L464.886522,152.510752 C464.886522,149.041341 464.080866,146.838824 462.46953,145.903134 C460.858194,144.967444 457.064287,144.499607 451.087694,144.499607 C443.997815,144.499607 439.427548,144.946418 437.376757,145.840054 C435.325965,146.73369 434.300585,148.725943 434.300585,151.816873 C434.300585,155.286284 435.106241,157.399439 436.717577,158.156402 C438.328913,158.913364 443.118904,159.428511 451.087694,159.701859 C460.433444,159.996233 466.373326,160.847803 468.907518,162.256594 C471.441711,163.665385 472.708788,166.819348 472.708788,171.718577 C472.708788,177.017314 471.251283,180.44462 468.336229,182.000598 C465.421176,183.556577 458.983252,184.334554 449.022264,184.334554 C440.379643,184.334554 434.630189,183.55132 431.773729,181.984828 C428.91727,180.418337 427.489061,177.259117 427.489061,172.507076 L427.445116,170.583139 L434.168749,170.583139 L434.168749,171.655497 C434.168749,175.503389 434.989053,177.895145 436.629686,178.830834 C438.27032,179.766524 442.474379,180.234362 449.241991,180.234362 C457.005702,180.234362 461.781045,179.766524 463.568163,178.830834 C465.355281,177.895145 466.248827,175.398257 466.248827,171.340098 C466.248827,168.711756 465.640923,166.961307 464.425097,166.088697 C463.20927,165.216088 460.667792,164.695684 456.800585,164.52747 L449.769335,164.275151 L443.089647,164.022831 C432.923581,163.51819 427.840624,159.733434 427.840624,152.668452 C427.840624,147.769223 429.320101,144.499615 432.2791,142.85953 C435.2381,141.219444 441.141361,140.399414 449.989061,140.399414 C458.95395,140.399414 464.798618,141.161622 467.523241,142.68606 C470.247864,144.210498 471.610155,147.485363 471.610155,152.510752 Z M500.389256,144.941166 L500.389256,159.607239 L530.843358,159.607239 L530.843358,163.707432 L500.389256,163.707432 L500.389256,179.792802 L532.161717,179.792802 L532.161717,183.892995 L493.621678,183.892995 L493.621678,140.840973 L532.161717,140.840973 L532.161717,144.941166 L500.389256,144.941166 Z M592.933006,174.777952 L562.566795,174.777952 L557.952538,183.892995 L550.789452,183.892995 L572.762108,140.840973 L582.254295,140.840973 L604.666405,183.892995 L597.591209,183.892995 L592.933006,174.777952 Z M590.955467,171.119318 L577.640038,144.815006 L564.500389,171.119318 L590.955467,171.119318 Z M626.018748,183.892995 L626.018748,140.840973 L654.583201,140.840973 C661.028546,140.840973 665.569516,141.755622 668.206248,143.584948 C670.84298,145.414274 672.161326,148.589263 672.161326,153.110011 C672.161326,157.084064 671.44356,159.854294 670.008006,161.420786 C668.572452,162.987278 665.833222,164.001802 661.790233,164.46439 L661.790233,164.55901 C668.147686,164.895438 671.326365,167.670925 671.326365,172.885555 L671.326365,183.892995 L664.558787,183.892995 L664.558787,173.989453 C664.558787,168.964064 661.526591,166.451407 655.462108,166.451407 L632.786326,166.451407 L632.786326,183.892995 L626.018748,183.892995 Z M632.786326,162.351214 L652.34199,162.351214 C657.498266,162.351214 661.013856,161.788757 662.888865,160.663827 C664.763875,159.538897 665.701365,157.420485 665.701365,154.308529 C665.701365,150.418583 665.005572,147.8849 663.613963,146.707403 C662.222355,145.529906 659.241427,144.941166 654.671092,144.941166 L632.786326,144.941166 L632.786326,162.351214 Z M736.624022,169.510781 L743.347654,169.510781 L743.347654,171.150858 C743.347654,177.017317 741.956067,180.68117 739.17285,182.142528 C736.389633,183.603886 729.38775,184.334554 718.16699,184.334554 C708.118112,184.334554 701.731457,183.046686 699.006834,180.470911 C696.282211,177.895136 694.91992,171.834271 694.91992,162.288134 C694.91992,154.823644 695.227534,150.129496 695.842772,148.20555 C696.458009,146.281604 698.215804,144.562694 701.116209,143.048769 C704.514664,141.282524 711.853457,140.399414 723.132811,140.399414 C730.779333,140.399414 735.928207,141.250984 738.579588,142.954149 C741.230968,144.657315 742.556639,147.947949 742.556639,152.826151 L742.600584,153.993129 L735.876951,153.993129 L735.833006,152.668452 C735.833006,149.199041 735.049322,146.97024 733.481932,145.981984 C731.914541,144.993727 728.376979,144.499607 722.869139,144.499607 C713.201122,144.499607 707.29786,145.077833 705.159178,146.234303 C703.020495,147.390774 701.95117,150.597303 701.95117,155.853986 C701.95117,167.944358 702.668936,175.030261 704.10449,177.111907 C705.540044,179.193554 710.447222,180.234362 718.82617,180.234362 C726.79496,180.234362 731.768055,179.782294 733.745604,178.878144 C735.723153,177.973995 736.711912,175.703141 736.711912,172.065517 L736.624022,169.510781 Z M814.797654,140.840973 L814.797654,183.892995 L808.030076,183.892995 L808.030076,163.928211 L772.961717,163.928211 L772.961717,183.892995 L766.194139,183.892995 L766.194139,140.840973 L772.961717,140.840973 L772.961717,159.828019 L808.030076,159.828019 L808.030076,140.840973 L814.797654,140.840973 Z" id="DOGGY-SEARCH" fill="#FF7A8A"></path>
        </g>
    </g>
</svg>
